<?xml version="1.0" encoding="UTF-8"?>
<svg id="Layer_2" data-name="Layer 2" xmlns="http://www.w3.org/2000/svg" xmlns:xlink="http://www.w3.org/1999/xlink" viewBox="0 0 273.52 79.94">
  <defs>
    <style>
      .cls-1 {
        filter: url(#drop-shadow-1);
      }

      .cls-2 {
        fill: #eeeae3;
      }
    </style>
    <filter id="drop-shadow-1" x=".98" y="0" width="272.54" height="46.94" filterUnits="userSpaceOnUse">
      <feOffset dx="0" dy="0"/>
      <feGaussianBlur result="blur" stdDeviation="7.81"/>
      <feFlood flood-color="#010101" flood-opacity=".1"/>
      <feComposite in2="blur" operator="in"/>
      <feComposite in="SourceGraphic"/>
    </filter>
  </defs>
  <g id="Layer_1-2" data-name="Layer 1">
    <g>
      <g class="cls-1">
        <path class="cls-2" d="M.98,9.5h6.2v27.93H.98V9.5ZM8.88,13.06c0-2.22,1.65-3.82,3.82-3.82s3.82,1.6,3.82,3.82-1.6,3.87-3.82,3.87-3.82-1.6-3.82-3.87Z"/>
        <path class="cls-2" d="M16.73,23.55c0-8.62,5.73-14.87,14.1-14.87s13.32,5.42,13.32,14.2c0,.88-.05,1.65-.16,2.53h-21.17c.67,4.29,3.77,7.33,8.21,7.33,3.25,0,5.83-1.65,7.28-4.7l5.22,2.58c-2.48,5.16-7.07,7.64-12.75,7.64-8.36,0-14.04-6.2-14.04-14.72ZM38.36,20.5c-.67-3.92-3.25-6.3-7.54-6.3-3.98,0-6.76,2.58-7.75,6.3h15.28Z"/>
        <path class="cls-2" d="M46.21,13.06c0-2.43,1.81-4.08,4.23-4.08s4.23,1.65,4.23,4.08-1.76,4.13-4.23,4.13-4.23-1.65-4.23-4.13ZM46.21,33.87c0-2.43,1.81-4.13,4.23-4.13s4.23,1.7,4.23,4.13-1.76,4.08-4.23,4.08-4.23-1.65-4.23-4.08Z"/>
        <path class="cls-2" d="M58.19,9.5h6.2c0,1.55,0,2.68-.05,4.18h.1c1.96-3,5.42-4.8,9.04-4.8,7.49,0,12.86,6.14,12.86,14.61s-5.58,14.61-12.81,14.61c-4.08,0-7.28-1.65-9.09-4.75h-.1c.05,1.7.05,2.79.05,4.65v8.93h-6.2V9.5ZM80.09,23.49c0-5.06-3.2-8.98-7.9-8.98s-8,3.72-8,8.98,3.2,8.98,8,8.98,7.9-3.92,7.9-8.98Z"/>
        <path class="cls-2" d="M88.97,26.13V9.5h6.2v16.21c0,4.08,2.22,6.87,6.09,6.87s6.14-2.79,6.14-6.87V9.5h6.2v16.63c0,7.49-4.8,12.13-12.34,12.13s-12.29-4.65-12.29-12.13Z"/>
        <path class="cls-2" d="M117.01,9.5h6.2v27.93h-6.2V9.5ZM124.91,13.06c0-2.22,1.65-3.82,3.82-3.82s3.82,1.6,3.82,3.82-1.6,3.87-3.82,3.87-3.82-1.6-3.82-3.87Z"/>
        <path class="cls-2" d="M134.82,9.5h6.2c0,1.55,0,2.68-.05,4.18h.1c1.96-3,5.42-4.8,9.04-4.8,7.49,0,12.86,6.14,12.86,14.61s-5.58,14.61-12.81,14.61c-4.08,0-7.28-1.65-9.09-4.75h-.1c.05,1.7.05,2.79.05,4.65v8.93h-6.2V9.5ZM156.72,23.49c0-5.06-3.2-8.98-7.9-8.98s-8,3.72-8,8.98,3.2,8.98,8,8.98,7.9-3.92,7.9-8.98Z"/>
        <path class="cls-2" d="M164.98,23.44c0-8.47,5.89-14.77,14.3-14.77s14.3,6.25,14.3,14.72-5.89,14.82-14.3,14.82-14.3-6.3-14.3-14.77ZM187.29,23.39c0-5.01-3.1-9.09-8-9.09s-8,4.08-8,9.14,3.1,9.14,8,9.14,8-4.18,8-9.19Z"/>
        <path class="cls-2" d="M194.36,33.1l4.44-3.92c1.45,2.12,3.56,3.56,6.09,3.56,2.22,0,3.61-1.29,3.61-3.1,0-2.12-1.81-2.69-3.92-3.41-5.06-1.65-8.83-3.67-8.83-8.93s4.18-8.62,9.5-8.62c3.72,0,6.51,1.55,8.78,4.29l-4.39,4.08c-1.39-1.86-2.74-2.84-4.49-2.84-2.27,0-3.51,1.24-3.51,2.84,0,2.12,1.91,2.69,4.08,3.41,5.11,1.65,8.67,3.56,8.67,8.98,0,5.06-3.82,8.83-9.91,8.83-4.29,0-7.85-1.96-10.12-5.16Z"/>
        <path class="cls-2" d="M216.1,23.55c0-8.62,5.73-14.87,14.1-14.87s13.32,5.42,13.32,14.2c0,.88-.05,1.65-.15,2.53h-21.17c.67,4.29,3.77,7.33,8.21,7.33,3.25,0,5.83-1.65,7.28-4.7l5.22,2.58c-2.48,5.16-7.07,7.64-12.75,7.64-8.37,0-14.04-6.2-14.04-14.72ZM237.73,20.5c-.67-3.92-3.25-6.3-7.54-6.3-3.98,0-6.76,2.58-7.75,6.3h15.28Z"/>
        <path class="cls-2" d="M245.43,23.49c0-8.47,5.37-14.67,12.8-14.67,3.82,0,7.28,1.45,9.09,4.6h.05c-.05-1.7-.05-2.43-.05-4.44V0h6.2v37.44h-6.2c0-1.5,0-2.48.05-3.92h-.05c-1.91,2.89-5.21,4.59-9.14,4.59-7.18,0-12.75-6.25-12.75-14.61ZM267.53,23.49c0-5.32-3.2-8.93-8-8.93s-7.9,3.87-7.9,8.99,3.2,8.98,7.9,8.98,8-3.77,8-9.04Z"/>
      </g>
      <g>
        <path class="cls-2" d="M1.38,68.45H0v-2.27h1.38v-2.57h2.57v2.57h2.06v2.27h-2.06v7.23H1.38v-7.23Z"/>
        <path class="cls-2" d="M7.28,61.94h2.55v3.5c0,.72-.02,1.44-.09,2.14l.15.02c.66-1.17,1.72-1.65,2.82-1.65,2.2,0,3.25,1.51,3.25,3.69v6.04h-2.55v-5.34c0-1.23-.55-2.06-1.74-2.06s-1.83.93-1.83,2.1v5.3h-2.55v-13.74Z"/>
        <path class="cls-2" d="M17.49,70.93c0-2.93,1.95-5.07,4.81-5.07s4.56,1.91,4.56,4.88c0,.32-.02.59-.06.91h-6.85c.23,1.25,1.1,2.14,2.38,2.14,1.02,0,1.8-.49,2.21-1.42l2.1.97c-.83,1.76-2.4,2.65-4.37,2.65-2.84,0-4.79-2.1-4.79-5.05ZM24.48,69.87c-.25-1.14-.96-1.87-2.18-1.87s-1.97.78-2.27,1.87h4.45Z"/>
        <path class="cls-2" d="M31.79,70.93c0-2.93,1.95-5.07,4.81-5.07s4.56,1.91,4.56,4.88c0,.32-.02.59-.06.91h-6.85c.23,1.25,1.1,2.14,2.38,2.14,1.02,0,1.8-.49,2.21-1.42l2.1.97c-.83,1.76-2.4,2.65-4.37,2.65-2.84,0-4.79-2.1-4.79-5.05ZM38.78,69.87c-.25-1.14-.96-1.87-2.18-1.87s-1.97.78-2.27,1.87h4.45Z"/>
        <path class="cls-2" d="M44.98,75.68l-3.69-9.46v-.04h2.71l2.29,6.58,2.29-6.58h2.71v.04l-3.73,9.46h-2.57Z"/>
        <path class="cls-2" d="M51.39,70.93c0-2.93,2.01-5.07,4.92-5.07s4.92,2.12,4.92,5.05-2,5.07-4.92,5.07-4.92-2.12-4.92-5.05ZM58.71,70.91c0-1.53-.93-2.76-2.4-2.76s-2.4,1.23-2.4,2.78.91,2.76,2.4,2.76,2.4-1.23,2.4-2.78Z"/>
        <path class="cls-2" d="M62.79,61.94h2.55v13.74h-2.55v-13.74Z"/>
        <path class="cls-2" d="M67.29,71.92v-5.73h2.54v5.62c0,1.12.66,1.89,1.76,1.89s1.74-.78,1.74-1.89v-5.62h2.55v5.71c0,2.57-1.7,4.11-4.3,4.11s-4.29-1.53-4.29-4.09Z"/>
        <path class="cls-2" d="M78.7,68.45h-1.38v-2.27h1.38v-2.57h2.57v2.57h2.06v2.27h-2.06v7.23h-2.57v-7.23Z"/>
        <path class="cls-2" d="M84.3,63.63c0-.87.64-1.46,1.55-1.46s1.55.59,1.55,1.46-.64,1.46-1.55,1.46-1.55-.59-1.55-1.46ZM84.58,66.18h2.55v9.5h-2.55v-9.5Z"/>
        <path class="cls-2" d="M88.71,70.93c0-2.93,2.01-5.07,4.92-5.07s4.92,2.12,4.92,5.05-2,5.07-4.92,5.07-4.92-2.12-4.92-5.05ZM96.03,70.91c0-1.53-.93-2.76-2.4-2.76s-2.4,1.23-2.4,2.78.91,2.76,2.4,2.76,2.4-1.23,2.4-2.78Z"/>
        <path class="cls-2" d="M100.11,66.18h2.5c0,.49,0,.87-.04,1.36l.15.02c.64-1.06,1.65-1.61,2.82-1.61,2.19,0,3.25,1.51,3.25,3.69v6.04h-2.55v-5.34c0-1.25-.55-2.06-1.74-2.06s-1.84.93-1.84,2.1v5.3h-2.55v-9.5Z"/>
        <path class="cls-2" d="M114.22,70.93c0-2.93,2.01-5.07,4.92-5.07s4.92,2.12,4.92,5.05-2.01,5.07-4.92,5.07-4.92-2.12-4.92-5.05ZM121.54,70.91c0-1.53-.93-2.76-2.4-2.76s-2.4,1.23-2.4,2.78.91,2.76,2.4,2.76,2.4-1.23,2.4-2.78Z"/>
        <path class="cls-2" d="M126.4,68.43h-1.42v-2.25h1.42v-.51c0-2.71,1.57-4.01,3.75-4.01.49,0,.89.06,1.33.21l-.06,2.12c-.34-.09-.62-.11-.95-.11-.91,0-1.53.57-1.53,1.72v.59h2.46v2.25h-2.46v7.25h-2.54v-7.25Z"/>
        <path class="cls-2" d="M136.16,63.63c0-.87.64-1.46,1.55-1.46s1.55.59,1.55,1.46-.64,1.46-1.55,1.46-1.55-.59-1.55-1.46ZM136.44,66.18h2.55v9.5h-2.55v-9.5Z"/>
        <path class="cls-2" d="M140.98,66.18h2.5c0,.49,0,.87-.04,1.36l.15.02c.64-1.06,1.65-1.61,2.82-1.61,2.19,0,3.25,1.51,3.25,3.69v6.04h-2.55v-5.34c0-1.25-.55-2.06-1.74-2.06s-1.84.93-1.84,2.1v5.3h-2.55v-9.5Z"/>
        <path class="cls-2" d="M151.06,70.91c0-2.82,1.65-4.96,4.28-4.96,1.19,0,2.19.47,2.88,1.59l.13-.04c-.08-.79-.08-1.34-.08-2.2v-3.37h2.55v13.74h-2.52c0-.47,0-.89.04-1.36l-.13-.04c-.7,1.12-1.72,1.61-2.97,1.61-2.52,0-4.18-2.21-4.18-4.98ZM158.33,70.91c0-1.57-.93-2.67-2.38-2.67-1.44.02-2.33,1.15-2.33,2.69s.89,2.67,2.33,2.67,2.38-1.12,2.38-2.69Z"/>
        <path class="cls-2" d="M162.75,71.92v-5.73h2.54v5.62c0,1.12.66,1.89,1.76,1.89s1.74-.78,1.74-1.89v-5.62h2.55v5.71c0,2.57-1.7,4.11-4.3,4.11s-4.29-1.53-4.29-4.09Z"/>
        <path class="cls-2" d="M172.44,74.32l1.68-1.53c.59.7,1.31,1.13,2.1,1.13s1.31-.36,1.31-.96c0-.64-.68-.83-1.5-1.02-1.61-.42-3.12-1.12-3.12-3.07s1.59-3.01,3.56-3.01c1.27,0,2.37.44,3.18,1.38l-1.63,1.53c-.45-.57-.97-.85-1.59-.85-.72,0-1.21.34-1.21.93s.66.79,1.48,1c1.65.42,3.16,1.04,3.16,3.03,0,1.87-1.61,3.1-3.73,3.1-1.48,0-2.84-.61-3.69-1.67Z"/>
        <path class="cls-2" d="M182.08,68.45h-1.38v-2.27h1.38v-2.57h2.57v2.57h2.06v2.27h-2.06v7.23h-2.57v-7.23Z"/>
        <path class="cls-2" d="M187.96,66.18h2.5c0,.51,0,.93-.04,1.44l.13.02c.53-1.08,1.46-1.53,2.46-1.53.17,0,.34.02.53.06v2.33h-.91c-1.38,0-2.12.85-2.12,2.27v4.92h-2.55v-9.5Z"/>
        <path class="cls-2" d="M194.4,63.63c0-.87.64-1.46,1.55-1.46s1.55.59,1.55,1.46-.64,1.46-1.55,1.46-1.55-.59-1.55-1.46ZM194.68,66.18h2.55v9.5h-2.55v-9.5Z"/>
        <path class="cls-2" d="M198.78,70.93c0-2.82,1.68-4.96,4.28-4.96,1.23,0,2.19.51,2.88,1.61l.13-.02c-.04-.47-.04-.89-.04-1.38h2.52v9.5h-2.52c0-.53,0-.87.04-1.38l-.13-.04c-.7,1.13-1.76,1.65-2.97,1.65-2.55,0-4.18-2.21-4.18-4.98ZM206.05,70.93c0-1.57-.93-2.67-2.38-2.67s-2.33,1.15-2.33,2.67.89,2.67,2.33,2.67,2.38-1.1,2.38-2.67Z"/>
        <path class="cls-2" d="M210.57,61.94h2.55v13.74h-2.55v-13.74Z"/>
        <path class="cls-2" d="M218.57,70.91c0-2.82,1.65-4.96,4.28-4.96,1.19,0,2.19.47,2.88,1.59l.13-.04c-.08-.79-.08-1.34-.08-2.2v-3.37h2.55v13.74h-2.52c0-.47,0-.89.04-1.36l-.13-.04c-.7,1.12-1.72,1.61-2.97,1.61-2.52,0-4.18-2.21-4.18-4.98ZM225.83,70.91c0-1.57-.93-2.67-2.38-2.67-1.44.02-2.33,1.15-2.33,2.69s.89,2.67,2.33,2.67,2.38-1.12,2.38-2.69Z"/>
        <path class="cls-2" d="M229.92,70.93c0-2.93,1.95-5.07,4.81-5.07s4.56,1.91,4.56,4.88c0,.32-.02.59-.06.91h-6.85c.23,1.25,1.1,2.14,2.38,2.14,1.02,0,1.8-.49,2.21-1.42l2.1.97c-.83,1.76-2.4,2.65-4.37,2.65-2.84,0-4.79-2.1-4.79-5.05ZM236.9,69.87c-.25-1.14-.97-1.87-2.18-1.87s-1.97.78-2.27,1.87h4.45Z"/>
        <path class="cls-2" d="M239.96,74.32l1.68-1.53c.59.7,1.31,1.13,2.1,1.13s1.31-.36,1.31-.96c0-.64-.68-.83-1.5-1.02-1.61-.42-3.12-1.12-3.12-3.07s1.59-3.01,3.56-3.01c1.27,0,2.37.44,3.18,1.38l-1.63,1.53c-.45-.57-.96-.85-1.59-.85-.72,0-1.21.34-1.21.93s.66.79,1.48,1c1.65.42,3.16,1.04,3.16,3.03,0,1.87-1.61,3.1-3.73,3.1-1.48,0-2.84-.61-3.69-1.67Z"/>
        <path class="cls-2" d="M248.56,63.63c0-.87.64-1.46,1.55-1.46s1.55.59,1.55,1.46-.64,1.46-1.55,1.46-1.55-.59-1.55-1.46ZM248.85,66.18h2.55v9.5h-2.55v-9.5Z"/>
        <path class="cls-2" d="M253.14,77.31l2.27-.98c.42.89,1.19,1.4,2.31,1.4,1.48,0,2.5-.93,2.5-2.38,0-.55,0-.83.02-1.34l-.13-.02c-.66,1.14-1.74,1.7-3.07,1.7-2.54,0-4.07-2.14-4.07-4.84s1.59-4.86,4.28-4.86c1.21,0,2.19.49,2.86,1.59l.13-.02c-.02-.45-.04-.87-.04-1.36h2.52v8.95c0,3.08-2.06,4.81-4.98,4.81-2.37,0-3.86-1.02-4.6-2.63ZM260.22,70.88c0-1.53-.91-2.61-2.38-2.61-1.44.02-2.33,1.14-2.33,2.63s.91,2.57,2.33,2.57,2.38-1.06,2.38-2.59Z"/>
        <path class="cls-2" d="M264.74,66.18h2.5c0,.49,0,.87-.04,1.36l.15.02c.64-1.06,1.65-1.61,2.82-1.61,2.19,0,3.25,1.51,3.25,3.69v6.04h-2.55v-5.34c0-1.25-.55-2.06-1.74-2.06s-1.84.93-1.84,2.1v5.3h-2.55v-9.5Z"/>
      </g>
    </g>
  </g>
</svg>