<?xml version="1.0" encoding="UTF-8"?>
<svg id="Layer_2" data-name="Layer 2" xmlns="http://www.w3.org/2000/svg" viewBox="0 0 592.21 86.14">
  <defs>
    <style>
      .cls-1 {
        fill: #dcddde;
      }
    </style>
  </defs>
  <g id="Layer_1-2" data-name="Layer 1">
    <g>
      <path class="cls-1" d="M13.01,79.6c-1.45.64-12.39,9.13-13.01,5.74.34-5.25,7.2-5.15,10.56-8.11,6.15-4.7,11.46-11.61,12.25-16.63,1.08-4.74-2.45-10.5-5.41-14.64C8.33,32.44,3.88,25.21,4.13,15.47,4.05,7.91,13.03-1.2,22.35.13c3.59.84,7.27,1.5,8.6,4.42.46,3.79-3.18.75-4.89-.05C14.93-.08,5.76,10.38,7.93,21.14c2.46,9.32,8.01,17.16,14.96,27.08,8.02,11.48.96,24.38-9.57,31.16l-.31.22Z"/>
      <path class="cls-1" d="M45.74,65.34c-12.09-2.63-15.56-14.67-15.99-26.86-.17-5.45.23-10.49,1.18-16.15.19-.93,1-2.27,1.91-1.99.69.14,1.06.91,1.03,1.74-.08,4.18-.63,11.58-.44,16.48.53,12.09,4.87,23.64,14.31,23.26,8.5-2.05,10.43-16.15,11.34-24.34.33-3.77-1.19-8.4-.86-12.01.14-2.41-.17-5.1.71-7.46.34-.56.89-.84,1.46-.82.69.02,1.21.51,1.38,1.21.28,2.1-.25,4.47-.13,6.64,0,8.94,1.81,19-2.44,27.42-1.98,5.91-6.29,12.78-13.08,12.89h-.38Z"/>
      <path class="cls-1" d="M67.09,42.12c-1.15-12.23,11.54-24.71,23.3-22.33,2.47.73,8.01,2.89,7.33,6.12-.47,1.13-1.46.77-2.9-.21-1.84-1.07-4.23-2.38-6.03-2.39-1.44,0-2.88.31-4.29.54-9.81,1.44-15.4,13.53-13.14,23.09,1.38,10.72,12.12,15.04,22.45,11.44,3.55-1.29,4.6-2.32,7.99-4.34,1.53-.95,2.92-1.68,4.17-.42,1.2,3.11-4.76,4.19-6.55,5.55-5.76,4.26-15.8,4.62-22.8,2.05-6.44-3.57-9.42-11.06-9.51-18.63v-.45Z"/>
      <path class="cls-1" d="M108.16,40.02c.51-5.06-1.09-10.8.3-15.87.43-2.96,3.71-3.83,3.61-.02-.09,1.11-.39,2.39-.48,3.54-.74,15.58,1.17,13.39,15.4,11.2,3.61-.62,6.97-1.23,9.21-1.34,1.18-.06,2.69.02,3.37-1.07,1-3.37.75-10.38,1.49-13.8.06-1.67.53-2.86,2.25-3.35.64-.1,1.02.33,1.08,1.07-.98,9.44-1.45,18.89-1.18,28.64-.39,3,1.3,8.79-1.1,11.55-1.1.65-2.1-1.07-2.44-3.59-1.34-5.92,1.55-10.74-.57-16.01-.25-.28-.57-.39-.98-.4-4.64.55-17.36,3.07-23.56,3.64-3.95.85-2.22,7.04-2.34,10.04-.09,2.02,1.22,10.19-2.6,9.09-1.93-1.43-.27-5.36-.47-7.45-.23-4.87-.99-11.06-.99-15.53v-.34Z"/>
      <path class="cls-1" d="M187.33,68.45c-1.15-.44-1.03-3.23-.88-4.63,1.98-20.71,3.46-36.68,4.44-47.91.07-1.86,1.52-3.1,2.78-1.18,5.81,9.15,21.93,35.91,25.31,41.81,1.03,1.08,1.1-2.13,1.17-2.91-.01-3.75,2-41.76,7.44-38.48,2.22,2.35-1.09,6.37-1.25,9.13-1.5,9.2-2.94,31.46-3.69,38.73-.08.98-.64,2.12-1.77,2.19-2.92-.66-3.98-5.9-5.69-8.23-3.84-7.66-8.99-16.22-13.55-22.73-1.41-2.11-7.09-15.23-8.33-10.81-.5,5.52-3.07,37.12-3.68,43.47-.09.96-.87,1.7-2.02,1.62l-.29-.09Z"/>
      <path class="cls-1" d="M239.48,23.81c-2.36-.25-8.41,3.87-8.56-.76.05-.63.4-1.09,1.01-1.33,3.11-.97,9.54-1.31,13.47-1.67,3.08-.18,5.39-.91,8.36-.09,1.32.49,1.48,2.25.11,2.85-2.24.9-5.31-.31-7.47,1.02-1.75,1.22-1.1,3.7-1.25,5.55-.21,6.24-1.55,18.39-1.71,23.07.09,1.61-.32,4.36.59,5.51,1.21.99,4.25.37,5.82,1.35,1.45.66,1.85,2.71.15,3.11-2.57.23-5.76-.34-8.5-.32-3.19-.35-6.6.44-9.54-.48-.59-.32-.97-.87-.96-1.43.28-2.64,6.34-1.69,7.59-3.03,1.52-4.66,1.46-11.02,2.06-16.71.22-3.4.51-7.79.7-13.67.02-1.16-.31-2.72-1.48-2.92l-.37-.04Z"/>
      <path class="cls-1" d="M255.21,42.12c-1.15-12.23,11.54-24.71,23.3-22.33,2.47.73,8.01,2.89,7.33,6.12-.47,1.13-1.46.77-2.9-.21-1.84-1.07-4.23-2.38-6.03-2.39-1.44,0-2.89.31-4.29.54-9.81,1.44-15.4,13.53-13.14,23.09,1.38,10.72,12.12,15.04,22.45,11.44,3.55-1.29,4.6-2.32,7.99-4.34,1.53-.95,2.92-1.68,4.17-.42,1.2,3.11-4.76,4.19-6.55,5.55-5.76,4.26-15.8,4.62-22.8,2.05-6.44-3.57-9.42-11.06-9.51-18.63v-.45Z"/>
      <path class="cls-1" d="M297.83,36.43c-1.44-12.54,1.23-10.23,12.74-12.51,3.88-.18,13.44-3.91,13.81-.65-.13,1.08-1.76,1.76-2.9,2.06-5.94,1.72-13.79,1.76-18.83,4.3-1.44,1.85-1.39,6.06-.27,7.97.56.78,1.52.87,2.74.79,2.63,0,5.11-.5,7.86-.03,2.19.62,1.88,2.08-.33,2.58-3.16,1.03-8.52,1.1-10.48,1.94-.33.41-.38.72-.39,1.35,0,2.31,0,7.91,0,10.23-.07,2.54,2.96,2.78,5.01,2.76,8.02-.26,14.96-.79,20.65-1.55,2.16-.17,6.19-2.13,7.22.7.3,1.67-2.27,2.42-3.86,2.43-13.14.71-21.9,1.98-29.71,1.35-4.29-1.35-3.25-3.96-3.35-8.55.29-5.48-.76-9.78.09-14.79v-.4Z"/>
      <path class="cls-1" d="M373.3,63.36c1.05-12.86-.5-42.74-.34-49.87-.02-1.04,1.03-1.96,2.23-1.28,1.11.6,1.41,2.61,1.54,3.74.13.76.4,1.07,1.04,1.04,2.01-.24,6.12-1.61,8.76-1.24,5.12.28,10.23-.07,14.55,2.88,4.64,3.15,6.43,7.99,5.59,13.88-.27,1.49-1.26,2.93-2,4.55-.88,2.01-1.5,3.79-3.38,5-4.35,3.28-8.79,6.3-12.98,5.97-2.94.18-9.23.7-10.95,1.79-.96,2.73.03,14.88-.42,18.93-.24,1.28-2.22,2.25-2.87.45-.6-1.6-.72-3.84-.78-5.43v-.41ZM376.93,35.98c.16,1.96-.17,5.7.83,7.5,4.5,1.77,9.63.76,14.45-.13,3.62-1.65,7.31-3.89,9.07-7.31,1.13-3.16,2.58-5.85,1.47-9.11-.62-1.5-2.16-3.23-3.27-4.47-3.74-2.18-8.65-2.89-13.04-2.9-2.94.08-5.74.65-8,1.83-.4.35-.53.21-.87,1.24-.27,3.57-.57,10.23-.65,13.08v.28Z"/>
      <path class="cls-1" d="M409.66,36.43c-1.44-12.54,1.23-10.23,12.74-12.51,3.88-.18,13.44-3.91,13.81-.65-.13,1.08-1.76,1.76-2.9,2.06-5.94,1.72-13.79,1.76-18.83,4.3-1.44,1.85-1.39,6.06-.27,7.97.56.78,1.52.87,2.74.79,2.63,0,5.11-.5,7.86-.03,2.19.62,1.88,2.08-.33,2.58-3.16,1.03-8.52,1.1-10.48,1.94-.33.41-.38.72-.39,1.35,0,2.31,0,7.91,0,10.23-.07,2.54,2.96,2.78,5.01,2.76,8.02-.26,14.96-.79,20.65-1.55,2.16-.17,6.19-2.13,7.21.7.3,1.67-2.27,2.42-3.86,2.43-13.13.71-21.9,1.98-29.71,1.35-4.29-1.35-3.25-3.96-3.35-8.55.29-5.48-.76-9.78.09-14.79v-.4Z"/>
      <path class="cls-1" d="M462.59,63.52c-2.38.22-4.68-1.03-6.91-2.3-7.07-3.21-7.56-12.13-7.54-19.62.39-6.19,1.76-12.02,5.14-16.89,2.99-3.43,7.64-5.7,12.53-5.95,1.68.21,3.39,1.35,5.1,2.02,2.6.95,3.27,3.04,5.04,5.26,2.74,3.94,5.84,8.11,5.93,12.99-.09,11.14-8.55,23.21-18.94,24.47l-.35.02ZM452.08,43.34c.09,26.63,24.1,18.5,25.63-2.36-.02-2.9.09-5.64-1.72-8.01-1.76-2.5-3.4-5.91-5.79-7.85-12.54-7.34-18.02,6.21-18.12,17.74v.47Z"/>
      <path class="cls-1" d="M486.96,63.36c1.05-12.86-.5-42.74-.34-49.87-.02-1.04,1.03-1.96,2.23-1.28,1.11.6,1.41,2.61,1.54,3.74.13.76.4,1.07,1.04,1.04,2.01-.24,6.12-1.61,8.76-1.24,5.12.28,10.23-.07,14.55,2.88,4.64,3.15,6.43,7.99,5.59,13.88-.27,1.49-1.26,2.93-2,4.55-.88,2.01-1.5,3.79-3.38,5-4.35,3.28-8.79,6.3-12.98,5.97-2.94.18-9.23.7-10.95,1.79-.96,2.73.03,14.88-.42,18.93-.24,1.28-2.22,2.25-2.87.45-.6-1.6-.72-3.84-.78-5.43v-.41ZM490.59,35.98c.16,1.96-.17,5.7.83,7.5,4.5,1.77,9.63.76,14.45-.13,3.62-1.65,7.31-3.89,9.07-7.31,1.13-3.16,2.58-5.85,1.47-9.11-.62-1.5-2.16-3.23-3.27-4.47-3.74-2.18-8.65-2.89-13.04-2.9-2.94.08-5.74.65-8,1.83-.4.35-.53.21-.87,1.24-.27,3.57-.57,10.23-.65,13.08v.28Z"/>
      <path class="cls-1" d="M526.23,64.26c-.95-13.88-2.45-34.54-3.37-47.97.16-1,2.45-1.19,3.07-.3.56.6.54,1.42.57,2.17.14,4.22.81,11.47,1.12,21.08.57,8.77.1,18.47,2.3,24.11,1.29,1.08,3.32.61,4.94.66,6.29-.21,11.22-1.2,16.27-3.33.81-.3,1.72-.06,2.18.83,1.35,2.98-3.07,3.14-5.01,3.58-5.94,2.01-12.67,1.97-18.58,1.94-1.53.03-3.29-.67-3.44-2.37l-.04-.38Z"/>
      <path class="cls-1" d="M555.36,36.43c-1.44-12.54,1.23-10.23,12.74-12.51,3.88-.18,13.44-3.91,13.81-.65-.13,1.08-1.76,1.76-2.9,2.06-5.94,1.72-13.79,1.76-18.83,4.3-1.44,1.85-1.39,6.06-.27,7.97.56.78,1.52.87,2.74.79,2.63,0,5.11-.5,7.86-.03,2.19.62,1.88,2.08-.33,2.58-3.16,1.03-8.52,1.1-10.48,1.94-.33.41-.38.72-.39,1.35,0,2.31,0,7.91,0,10.23-.07,2.54,2.96,2.78,5.01,2.76,8.02-.26,14.96-.79,20.65-1.55,2.16-.17,6.19-2.13,7.21.7.3,1.67-2.27,2.42-3.86,2.43-13.13.71-21.9,1.98-29.71,1.35-4.29-1.35-3.25-3.96-3.35-8.55.29-5.48-.76-9.78.09-14.79v-.4Z"/>
    </g>
  </g>
</svg>