<?xml version="1.0" encoding="UTF-8"?>
<svg id="Layer_2" data-name="Layer 2" xmlns="http://www.w3.org/2000/svg" viewBox="0 0 116.92 88.76">
  <defs>
    <style>
      .cls-1 {
        fill: #d9d9d9;
      }
    </style>
  </defs>
  <g id="Layer_1-2" data-name="Layer 1">
    <path class="cls-1" d="M13.41,82.02c-1.5.66-12.77,9.41-13.41,5.92.36-5.41,7.42-5.31,10.88-8.35,6.33-4.84,11.81-11.97,12.62-17.14,1.11-4.89-2.52-10.82-5.57-15.09C8.58,33.43,4,25.98,4.25,15.94,4.17,8.15,13.42-1.24,23.03.14c3.69.87,7.49,1.55,8.86,4.56.48,3.9-3.28.77-5.04-.05C15.38-.08,5.93,10.69,8.17,21.78c2.53,9.6,8.25,17.68,15.42,27.9,8.27,11.83.99,25.13-9.86,32.11l-.32.23Z"/>
    <path class="cls-1" d="M34.26,72.5c-1.18-.46-1.06-3.33-.9-4.77,2.04-21.34,3.57-37.79,4.58-49.37.08-1.91,1.57-3.2,2.86-1.21,5.99,9.42,22.6,37,26.08,43.09,1.06,1.11,1.13-2.2,1.2-3-.01-3.86,2.06-43.03,7.67-39.65,2.29,2.42-1.12,6.57-1.29,9.41-1.55,9.48-3.03,32.42-3.8,39.91-.08,1.01-.66,2.18-1.82,2.26-3-.68-4.1-6.08-5.86-8.48-3.96-7.89-9.26-16.72-13.96-23.42-1.46-2.18-7.31-15.69-8.58-11.14-.52,5.68-3.16,38.25-3.79,44.8-.09.98-.89,1.76-2.08,1.67l-.3-.09Z"/>
    <path class="cls-1" d="M82.32,67.33c1.08-13.25-.52-44.04-.35-51.39-.02-1.08,1.06-2.02,2.3-1.31,1.15.62,1.45,2.69,1.59,3.85.14.79.42,1.1,1.07,1.07,2.08-.24,6.31-1.66,9.03-1.27,5.27.29,10.54-.07,15,2.97,4.78,3.25,6.62,8.24,5.76,14.3-.28,1.54-1.3,3.02-2.06,4.69-.91,2.07-1.54,3.91-3.48,5.15-4.48,3.38-9.06,6.49-13.37,6.15-3.03.19-9.51.73-11.29,1.84-.99,2.81.03,15.33-.43,19.5-.24,1.32-2.29,2.32-2.96.47-.62-1.65-.75-3.96-.8-5.6v-.42ZM86.07,39.12c.16,2.02-.17,5.87.86,7.73,4.64,1.82,9.92.78,14.89-.14,3.73-1.7,7.53-4.01,9.35-7.54,1.16-3.25,2.66-6.03,1.52-9.39-.64-1.54-2.23-3.33-3.37-4.61-3.86-2.24-8.91-2.98-13.44-2.99-3.03.08-5.91.67-8.24,1.88-.41.36-.54.22-.89,1.28-.28,3.68-.59,10.54-.67,13.48v.29Z"/>
  </g>
</svg>